<?xml version="1.0" encoding="UTF-8"?>
<svg xmlns="http://www.w3.org/2000/svg" version="1.1" viewBox="0 0 84.7 84.7">
  <defs>
    <style>
      .cls-1 {
        fill: #f8485e;
      }
    </style>
  </defs>
  <!-- Generator: Adobe Illustrator 28.7.1, SVG Export Plug-In . SVG Version: 1.2.0 Build 142)  -->
  <g>
    <g id="Lager_1">
      <path class="cls-1" d="M80.2,31.5L53.3,4.5c-6-6-15.8-6-21.8,0L4.5,31.5c-6,6-6,15.8,0,21.8l26.9,26.9c6,6,15.8,6,21.8,0l26.9-26.9c6-6,6-15.8,0-21.8ZM37.1,46.5c.4,1.2,1,2.2,1.7,3,.7.8,1.6,1.4,2.5,1.9,1,.4,2,.6,3.1.6s1.2,0,1.7,0c.5,0,1-.2,1.5-.3.4-.2.9-.3,1.3-.6.4-.2.8-.5,1.2-.9.2-.1.3-.3.5-.3.2,0,.4-.1.6-.1s.3,0,.5,0c.2,0,.3.2.5.3l2.8,2.9c-1.2,1.6-2.7,2.8-4.5,3.6-1.8.8-4,1.2-6.5,1.2s-4.3-.4-6.1-1.2c-1.8-.8-3.3-1.8-4.6-3.2-1.3-1.4-2.2-3-2.9-4.9-.7-1.9-1-3.9-1-6.1s.4-4.3,1.2-6.2c.8-1.9,1.8-3.5,3.2-4.9,1.4-1.4,3-2.4,5-3.2,1.9-.8,4-1.1,6.4-1.1s2.2,0,3.2.3c1,.2,1.9.5,2.8.8.9.4,1.7.8,2.4,1.3.7.5,1.4,1,1.9,1.6l-2.3,3.2c-.2.2-.3.4-.5.5-.2.2-.5.2-.9.2s-.5,0-.7-.2c-.2-.1-.5-.2-.7-.4-.2-.2-.5-.3-.8-.5-.3-.2-.6-.4-1.1-.5-.4-.2-.9-.3-1.4-.4-.5-.1-1.2-.2-1.9-.2-1.3,0-2.4.2-3.5.7-1,.4-1.9,1.1-2.7,1.9-.7.8-1.3,1.8-1.8,3-.4,1.2-.6,2.5-.6,4s.2,2.9.6,4.1Z"/>
    </g>
  </g>
</svg>