<?xml version="1.0" encoding="UTF-8"?>
<svg xmlns="http://www.w3.org/2000/svg" version="1.1" viewBox="0 0 268.2 84.7">
  <defs>
    <style>
      .cls-1 {
        fill: #221f20;
      }

      .cls-2 {
        fill: #f8485e;
      }
    </style>
  </defs>
  <!-- Generator: Adobe Illustrator 28.7.1, SVG Export Plug-In . SVG Version: 1.2.0 Build 142)  -->
  <g>
    <g id="Lager_1">
      <g id="Lager_1-2" data-name="Lager_1">
        <g>
          <path class="cls-2" d="M80.2,31.5L53.3,4.5c-6-6-15.8-6-21.8,0L4.5,31.5c-6,6-6,15.8,0,21.8l26.9,26.9c6,6,15.8,6,21.8,0l26.9-26.9c6-6,6-15.8,0-21.8h0ZM37.1,46.5c.4,1.2,1,2.2,1.7,3s1.6,1.4,2.5,1.9c1,.4,2,.6,3.1.6h1.7c.5,0,1-.2,1.5-.3.4-.2.9-.3,1.3-.6.4-.2.8-.5,1.2-.9.2,0,.3-.3.5-.3s.4,0,.6,0h.5c.2,0,.3.2.5.3l2.8,2.9c-1.2,1.6-2.7,2.8-4.5,3.6s-4,1.2-6.5,1.2-4.3-.4-6.1-1.2-3.3-1.8-4.6-3.2-2.2-3-2.9-4.9c-.7-1.9-1-3.9-1-6.1s.4-4.3,1.2-6.2c.8-1.9,1.8-3.5,3.2-4.9,1.4-1.4,3-2.4,5-3.2,1.9-.8,4-1.1,6.4-1.1s2.2,0,3.2.3c1,.2,1.9.5,2.8.8.9.4,1.7.8,2.4,1.3s1.4,1,1.9,1.6l-2.3,3.2c-.2.2-.3.4-.5.5-.2.2-.5.2-.9.2s-.5,0-.7-.2c-.2,0-.5-.2-.7-.4s-.5-.3-.8-.5-.6-.4-1.1-.5c-.4-.2-.9-.3-1.4-.4-.5,0-1.2-.2-1.9-.2-1.3,0-2.4.2-3.5.7-1,.4-1.9,1.1-2.7,1.9-.7.8-1.3,1.8-1.8,3-.4,1.2-.6,2.5-.6,4s.2,2.9.6,4.1h-.1Z"/>
          <g>
            <path class="cls-1" d="M117.3,49.3h.5c.2,0,.3.2.5.3l2.7,2.8c-1.2,1.5-2.6,2.7-4.4,3.5s-3.9,1.2-6.3,1.2-4.2-.4-5.9-1.1c-1.8-.8-3.2-1.8-4.5-3.1-1.2-1.3-2.2-2.9-2.8-4.7-.7-1.8-1-3.8-1-5.9s.4-4.2,1.1-6,1.8-3.4,3.1-4.7c1.3-1.3,2.9-2.3,4.8-3.1s3.9-1.1,6.2-1.1,2.1,0,3.1.3,1.9.5,2.7.8c.8.3,1.6.7,2.3,1.2.7.5,1.3,1,1.9,1.6l-2.3,3.1c0,.2-.3.4-.5.5-.2.2-.5.2-.8.2s-.5,0-.7-.2c-.2-.1-.4-.2-.7-.4-.2-.2-.5-.3-.8-.5s-.6-.3-1-.5-.9-.3-1.4-.4-1.1-.2-1.9-.2c-1.2,0-2.3.2-3.4.6-1,.4-1.9,1.1-2.6,1.9s-1.3,1.8-1.7,2.9c-.4,1.1-.6,2.4-.6,3.9s.2,2.8.6,4,1,2.1,1.7,2.9c.7.8,1.5,1.4,2.4,1.8s1.9.6,3,.6h1.7c.5,0,1-.2,1.4-.3s.8-.3,1.2-.6c.4-.2.8-.5,1.2-.9.2,0,.3-.2.5-.3.2,0,.4,0,.6,0h.1Z"/>
            <path class="cls-1" d="M133.2,35.8c1.6,0,3,.2,4.3.7s2.4,1.2,3.3,2.1c.9.9,1.6,2,2.2,3.4.5,1.3.8,2.8.8,4.4s-.3,3.1-.8,4.5c-.5,1.3-1.2,2.5-2.2,3.4s-2,1.6-3.3,2.1-2.7.8-4.3.8-3-.2-4.3-.8c-1.3-.5-2.4-1.2-3.4-2.1-.9-.9-1.7-2.1-2.2-3.4-.5-1.3-.8-2.8-.8-4.5s.3-3.1.8-4.4c.5-1.3,1.2-2.4,2.2-3.4s2.1-1.6,3.4-2.1,2.7-.7,4.3-.7ZM133.2,52.5c1.4,0,2.5-.5,3.1-1.5.7-1,1-2.5,1-4.6s-.3-3.6-1-4.6-1.7-1.5-3.1-1.5-2.5.5-3.2,1.5-1,2.5-1,4.6.3,3.6,1,4.6,1.8,1.5,3.2,1.5Z"/>
            <path class="cls-1" d="M147.2,56.8v-20.7h3.8c.4,0,.7,0,1,.3s.4.4.5.8l.3,1.1c.3-.4.7-.7,1.1-1,.4-.3.8-.6,1.2-.8s.9-.4,1.4-.5,1-.2,1.7-.2c1.3,0,2.3.3,3.1,1,.8.6,1.4,1.5,1.9,2.6.3-.6.8-1.2,1.3-1.6.5-.5,1-.8,1.6-1.1s1.2-.5,1.8-.6,1.3-.2,1.9-.2c1.2,0,2.2.2,3.2.5.9.4,1.7.9,2.3,1.5.6.7,1.1,1.5,1.4,2.5.3,1,.5,2.1.5,3.3v13.2h-6.2v-13.2c0-2.1-.9-3.2-2.8-3.2s-1.5.3-2.1.8c-.6.6-.8,1.3-.8,2.4v13.2h-6.2v-13.2c0-1.2-.2-2-.7-2.5s-1.2-.7-2.1-.7-1.1,0-1.6.4c-.5.3-1,.6-1.4,1v15h-6.2.1Z"/>
            <path class="cls-1" d="M181.6,63.4v-27.3h3.8c.4,0,.7,0,1,.3s.4.4.5.8l.5,1.5c.4-.4.8-.8,1.3-1.2s1-.7,1.5-.9c.5-.3,1.1-.5,1.7-.6.6,0,1.3-.2,2-.2,1.1,0,2.1.2,3,.7s1.7,1.2,2.4,2.1c.7.9,1.2,2,1.6,3.3.4,1.3.6,2.8.6,4.5s-.2,3-.7,4.3c-.4,1.3-1,2.5-1.8,3.4-.8,1-1.7,1.7-2.8,2.3s-2.3.8-3.6.8-2-.2-2.7-.5-1.4-.7-2-1.2v8h-6.3ZM191.7,40.4c-.5,0-.9,0-1.2,0-.4,0-.7.2-1,.4s-.6.4-.9.6c-.3.2-.5.5-.8.9v8.8c.5.5,1,.9,1.5,1.1s1.1.3,1.7.3,1.1,0,1.6-.3.9-.6,1.2-1.1.6-1.1.8-2c.2-.8.3-1.8.3-2.9s0-2-.2-2.8c-.2-.7-.4-1.4-.7-1.8-.3-.5-.6-.8-1-1s-.8-.3-1.3-.3h0Z"/>
            <path class="cls-1" d="M219,56.8c-.6,0-1,0-1.3-.2s-.5-.5-.8-1l-.4-1.1c-.5.4-1,.8-1.5,1.2-.5.3-1,.6-1.5.9-.5.2-1.1.4-1.6.5s-1.2.2-1.9.2-1.8,0-2.6-.4-1.4-.6-2-1.1c-.5-.5-1-1.1-1.2-1.8-.3-.7-.4-1.5-.4-2.5s.2-1.5.6-2.3c.4-.8,1-1.5,1.9-2.1s2.2-1.2,3.7-1.6c1.6-.4,3.5-.6,5.9-.6v-.9c0-1.2-.2-2.1-.8-2.7s-1.2-.8-2.1-.8-1.3,0-1.8.2-.9.3-1.2.5c-.4.2-.7.4-1.1.5s-.8.2-1.2.2-.8,0-1.1-.3-.5-.5-.7-.8l-1.1-1.9c1.3-1.1,2.6-1.9,4.2-2.5,1.5-.5,3.2-.8,4.9-.8s2.4.2,3.4.6,1.9,1,2.6,1.7c.7.7,1.2,1.6,1.6,2.6s.6,2.1.6,3.3v13h-3.1ZM211.9,53c.8,0,1.5,0,2.1-.4.6-.3,1.2-.7,1.8-1.4v-2.8c-1.2,0-2.3,0-3.1.2s-1.4.4-1.9.6-.8.5-1,.8-.3.6-.3,1c0,.7.2,1.2.6,1.5.4.3,1,.4,1.7.4h0Z"/>
            <path class="cls-1" d="M226.3,56.8v-20.7h3.8c.4,0,.7,0,1,.3s.4.4.5.8l.4,1.2c.4-.4.8-.7,1.2-1s.9-.6,1.4-.8,1-.4,1.6-.5,1.2-.2,1.9-.2c1.1,0,2.1.2,3,.6.9.4,1.6.9,2.2,1.6.6.7,1.1,1.5,1.4,2.5.3,1,.5,2,.5,3.1v13.2h-6.2v-13.2c0-1-.2-1.8-.7-2.4s-1.2-.9-2.1-.9-1.3,0-1.9.4c-.6.3-1.2.7-1.7,1.2v14.8h-6.3Z"/>
            <path class="cls-1" d="M257.2,62.2c-.2.4-.4.7-.7.9-.3.2-.7.3-1.3.3h-4.6l4-8.4-8.3-18.9h5.5c.5,0,.9,0,1.1.3s.5.5.6.8l3.4,8.9c.3.8.6,1.7.8,2.5.1-.4.3-.8.4-1.3.2-.4.3-.8.5-1.3l3.1-8.9c.1-.3.3-.6.6-.8.3-.2.6-.3,1-.3l5-1-11.1,27.1h0Z"/>
          </g>
        </g>
      </g>
    </g>
  </g>
</svg>