<?xml version="1.0" encoding="UTF-8"?>
<svg xmlns="http://www.w3.org/2000/svg" version="1.1" viewBox="0 0 172.2 53.1">
  <defs>
    <style>
      .cls-1 {
        fill: #fff;
      }
    </style>
  </defs>
  <!-- Generator: Adobe Illustrator 28.7.1, SVG Export Plug-In . SVG Version: 1.2.0 Build 142)  -->
  <g>
    <g id="Lager_1">
      <g id="Lager_1-2" data-name="Lager_1">
        <g>
          <g>
            <path class="cls-1" d="M17.2,42.8v1.9h-2.9v8.3h-2.4v-8.3h-2.9v-1.9h8.2Z"/>
            <path class="cls-1" d="M29,42.8v1.8h-4.2v2.4h3.2v1.8h-3.2v2.4h4.2v1.8h-6.6v-10.2h6.6Z"/>
            <path class="cls-1" d="M41.4,50.3h.2s0,0,.2,0l.9,1c-.4.5-.9.9-1.5,1.2s-1.4.4-2.2.4-1.5,0-2.1-.4c-.6-.3-1.1-.6-1.6-1.1-.4-.5-.8-1-1-1.7-.2-.6-.3-1.3-.3-2.1s0-1.5.4-2.1.6-1.2,1.1-1.6c.5-.5,1-.8,1.7-1.1s1.4-.4,2.2-.4.7,0,1.1,0,.7.2.9.3c.3,0,.6.3.8.4.2.2.5.3.7.5l-.8,1.1-.2.2c-.1.1-.2,0-.3,0h-.2s-.2,0-.2,0-.2,0-.3-.2c0,0-.2,0-.4-.2s-.3,0-.5,0h-.6c-.4,0-.8,0-1.2.2s-.7.4-.9.7-.5.6-.6,1-.2.9-.2,1.4,0,1,.2,1.4c0,.4.3.7.6,1,.2.3.5.5.9.6s.7.2,1,.2h.6c.2,0,.3,0,.5,0,.2,0,.3,0,.4-.2,0,0,.3-.2.4-.3,0,0,0,0,.2,0h.2-.1Z"/>
            <path class="cls-1" d="M56.8,53h-2.4v-4.3h-4.1v4.3h-2.4v-10.2h2.4v4.3h4.1v-4.3h2.4v10.2Z"/>
            <path class="cls-1" d="M73.4,42.7c.5,0,.9,0,1.2.2.3,0,.6.3.9.5.2.2.4.5.6.8,0,.3.2.6.3.9l-1.4.3h0c-.2,0-.3,0-.4-.3s-.2-.4-.4-.6-.3-.2-.6-.2h-.4c0,0-.2,0-.3.2s0,.2-.2.3,0,.3,0,.4v.3c0,0,0,.2,0,.3,0,0,0,.2.2.4s.2.3.3.4l2.5,2.7c0-.3.2-.6.3-.9,0-.3,0-.6.2-.9,0,0,0-.2,0-.3,0,0,.2,0,.3,0h1.4c0,.7,0,1.3-.3,1.9-.2.6-.4,1.1-.8,1.6l2.1,2.3h-2.6s0,0-.2,0c0,0,0,0-.2-.2l-.4-.5c-.4.3-.9.5-1.5.7s-1.1.3-1.7.3-.8,0-1.2-.2-.7-.3-1-.6-.5-.6-.7-.9c-.2-.4-.3-.8-.3-1.2s0-.6,0-.9.2-.5.4-.8c.2-.2.4-.5.6-.6.2-.2.5-.4.8-.5-.2-.3-.4-.7-.5-1,0-.3,0-.6,0-1s0-.7.2-1c0-.3.3-.6.6-.9.3-.2.6-.4.9-.6s.8-.2,1.3-.2h-.2ZM71.3,49.9c0,.2,0,.4,0,.6,0,.2.2.3.3.5s.3.2.5.3c.2,0,.4,0,.6,0,.3,0,.6,0,.9,0,.3,0,.5-.2.8-.3l-2.3-2.5c-.3.2-.4.4-.5.7,0,.2-.2.5-.2.8h-.2Z"/>
            <path class="cls-1" d="M100.1,47.9c0,.7,0,1.4-.4,2s-.6,1.2-1.1,1.6c-.5.5-1,.8-1.7,1.1s-1.4.4-2.2.4h-4v-10.2h4c.8,0,1.5,0,2.2.4.7.3,1.2.6,1.7,1.1s.8,1,1.1,1.6c.3.6.4,1.3.4,2ZM97.7,47.9c0-.5,0-1-.2-1.4,0-.4-.3-.8-.6-1s-.5-.5-.9-.7-.8-.2-1.2-.2h-1.6v6.6h1.6c.5,0,.9,0,1.2-.2.4-.2.7-.4.9-.7s.4-.6.6-1c0-.4.2-.9.2-1.4Z"/>
            <path class="cls-1" d="M112,42.8v1.8h-4.2v2.4h3.2v1.8h-3.2v2.4h4.2v1.8h-6.6v-10.2h6.6Z"/>
            <path class="cls-1" d="M123.2,44.8c0,0,0,.2-.2.3h-.3c-.1,0-.2,0-.3,0,0,0-.3,0-.4-.2s-.3-.2-.5-.2-.4,0-.7,0-.8,0-1,.3c-.2.2-.3.4-.3.8s0,.4.2.5c0,0,.3.3.5.3s.5.2.7.3c.3,0,.6.2.8.3.3,0,.6.2.8.4.3,0,.5.3.7.5s.4.5.5.8.2.7.2,1.1,0,.9-.2,1.3c-.2.4-.4.8-.7,1.1-.3.3-.7.5-1.1.7s-1,.3-1.6.3h-1c-.3,0-.6-.2-1-.3-.3,0-.6-.3-.9-.4s-.5-.3-.7-.5l.7-1.1s0-.2.2-.2h.3c.1,0,.3,0,.4,0,0,0,.3.2.5.3l.6.3c.2,0,.5,0,.8,0s.8,0,1-.3c.2-.2.4-.5.4-.9s0-.4-.2-.6-.3-.3-.5-.4c-.2,0-.5-.2-.7-.3-.3,0-.5-.2-.8-.2s-.6-.2-.8-.3-.5-.3-.7-.5-.4-.5-.5-.8-.2-.7-.2-1.2,0-.8.2-1.1c.2-.4.4-.7.7-1,.3-.3.7-.5,1.1-.7s.9-.3,1.5-.3h.9c.3,0,.6,0,.8.2s.5.2.7.3.4.3.6.5l-.6,1.1v-.2Z"/>
            <path class="cls-1" d="M131.9,53h-2.4v-10.2h2.4v10.2Z"/>
            <path class="cls-1" d="M142.8,51.3h.9c.3,0,.5,0,.7-.2v-1.5h-1c-.1,0-.3,0-.3,0s-.1-.2-.1-.3v-1.3h3.6v4.3c-.3.2-.5.4-.8.5s-.6.3-.9.3-.7.2-1,.2h-1.2c-.7,0-1.4,0-2.1-.4s-1.2-.6-1.6-1.1c-.5-.5-.8-1-1.1-1.7s-.4-1.3-.4-2.1.1-1.5.4-2.1.6-1.2,1.1-1.6c.5-.5,1-.8,1.7-1.1s1.4-.4,2.2-.4.8,0,1.2,0c.4,0,.7.2,1,.3s.6.3.9.4c.3.2.5.3.7.5l-.7,1s-.1.2-.2.2h-.3c-.1,0-.3,0-.4,0-.2,0-.4-.2-.5-.3-.2,0-.3,0-.5-.2-.2,0-.4,0-.5,0h-.6c-.4,0-.8,0-1.2.2s-.7.4-.9.7-.4.6-.6,1c-.1.4-.2.8-.2,1.3s0,1,.2,1.4c.1.4.4.8.6,1.1s.6.5.9.7c.4.2.8.2,1.2.2l-.2.2Z"/>
            <path class="cls-1" d="M153.7,42.8h.2s.1,0,.2,0c0,0,.1,0,.2.2l4.8,6.1v-6.5h2.1v10.2h-1.7c-.1,0-.2-.2-.4-.3l-4.8-6.1v6.5h-2.1v-10.2h1.5Z"/>
          </g>
          <g>
            <path class="cls-1" d="M21.3,21.9h.5c.2,0,.3.2.5.3l2.7,2.8c-1.2,1.5-2.6,2.7-4.4,3.5s-3.9,1.2-6.3,1.2-4.2-.4-5.9-1.1c-1.8-.8-3.2-1.8-4.5-3.1-1.2-1.3-2.2-2.9-2.8-4.7C.4,19,0,17,0,14.9s.4-4.2,1.1-6c.7-1.8,1.8-3.4,3.1-4.7,1.3-1.3,2.9-2.3,4.8-3.1S13,0,15.3,0,17.4,0,18.4.3s1.9.5,2.7.8c.8.3,1.6.7,2.3,1.2.7.5,1.3,1,1.9,1.6l-2.3,3.1c-.1.2-.3.4-.5.5-.2.2-.5.2-.8.2s-.5,0-.7-.2c-.2,0-.4-.2-.7-.4-.2-.2-.5-.3-.8-.5s-.6-.3-1-.5-.9-.3-1.4-.4-1.1-.2-1.9-.2c-1.2,0-2.3.2-3.4.6-1,.4-1.9,1.1-2.6,1.9-.7.8-1.3,1.8-1.7,2.9-.4,1.1-.6,2.4-.6,3.9s.2,2.8.6,4,1,2.1,1.7,2.9,1.5,1.4,2.4,1.8,1.9.6,3,.6h1.7c.5,0,1-.2,1.4-.3.4-.1.8-.3,1.2-.6.4-.2.8-.5,1.2-.9.2-.1.3-.2.5-.3.2,0,.4-.1.6-.1h0Z"/>
            <path class="cls-1" d="M37.2,8.4c1.6,0,3,.2,4.3.7s2.4,1.2,3.3,2.1c.9.9,1.6,2,2.2,3.4.5,1.3.8,2.8.8,4.4s-.3,3.1-.8,4.5c-.5,1.3-1.2,2.5-2.2,3.4s-2,1.6-3.3,2.1-2.7.8-4.3.8-3-.2-4.3-.8c-1.3-.5-2.4-1.2-3.4-2.1-.9-.9-1.7-2.1-2.2-3.4s-.8-2.8-.8-4.5.3-3.1.8-4.4c.5-1.3,1.2-2.4,2.2-3.4s2.1-1.6,3.4-2.1,2.7-.7,4.3-.7ZM37.2,25.2c1.4,0,2.5-.5,3.1-1.5.7-1,1-2.5,1-4.6s-.3-3.6-1-4.6-1.7-1.5-3.1-1.5-2.5.5-3.2,1.5-1,2.5-1,4.6.3,3.6,1,4.6,1.8,1.5,3.2,1.5Z"/>
            <path class="cls-1" d="M51.2,29.5V8.7h3.8c.4,0,.7,0,1,.3s.4.4.5.8l.3,1.1c.3-.4.7-.7,1.1-1,.4-.3.8-.6,1.2-.8s.9-.4,1.4-.5,1-.2,1.7-.2c1.3,0,2.3.3,3.1,1,.8.6,1.4,1.5,1.9,2.6.3-.6.8-1.2,1.3-1.6.5-.5,1-.8,1.6-1.1s1.2-.5,1.8-.6c.6-.1,1.3-.2,1.9-.2,1.2,0,2.2.2,3.2.5.9.4,1.7.9,2.3,1.5.6.7,1.1,1.5,1.4,2.5s.5,2.1.5,3.3v13.2h-6.2v-13.2c0-2.1-.9-3.2-2.8-3.2s-1.5.3-2.1.8c-.6.6-.8,1.3-.8,2.4v13.2h-6.2v-13.2c0-1.2-.2-2-.7-2.5s-1.2-.7-2.1-.7-1.1.1-1.6.4c-.5.3-1,.6-1.4,1v15h-6.2,0Z"/>
            <path class="cls-1" d="M85.6,36V8.7h3.8c.4,0,.7,0,1,.3s.4.4.5.8l.5,1.5c.4-.4.8-.8,1.3-1.2s1-.7,1.5-.9c.5-.3,1.1-.5,1.7-.6s1.3-.2,2-.2c1.1,0,2.1.2,3,.7s1.7,1.2,2.4,2.1c.7.9,1.2,2,1.6,3.3s.6,2.8.6,4.5-.2,3-.7,4.3c-.4,1.3-1,2.5-1.8,3.4-.8,1-1.7,1.7-2.8,2.3s-2.3.8-3.6.8-2-.2-2.7-.5-1.4-.7-2-1.2v8h-6.3ZM95.7,13.1c-.5,0-.9,0-1.2.1-.4,0-.7.2-1,.4s-.6.4-.9.6c-.3.2-.5.5-.8.9v8.8c.5.5,1,.9,1.5,1.1s1.1.3,1.7.3,1.1-.1,1.6-.3c.5-.2.9-.6,1.2-1.1s.6-1.1.8-2c.2-.8.3-1.8.3-2.9s0-2-.2-2.8c-.2-.7-.4-1.4-.7-1.8-.3-.5-.6-.8-1-1s-.8-.3-1.3-.3Z"/>
            <path class="cls-1" d="M123,29.5c-.6,0-1,0-1.3-.2s-.5-.5-.8-1l-.4-1.1c-.5.4-1,.8-1.5,1.2-.5.3-1,.6-1.5.9-.5.2-1.1.4-1.6.5s-1.2.2-1.9.2-1.8-.1-2.6-.4-1.4-.6-2-1.1c-.5-.5-1-1.1-1.2-1.8-.3-.7-.4-1.5-.4-2.5s.2-1.5.6-2.3,1-1.5,1.9-2.1,2.2-1.2,3.7-1.6c1.6-.4,3.5-.6,5.9-.6v-.9c0-1.2-.2-2.1-.8-2.7s-1.2-.8-2.1-.8-1.3,0-1.8.2-.9.3-1.2.5c-.4.2-.7.4-1.1.5s-.8.2-1.2.2-.8-.1-1.1-.3c-.3-.2-.5-.5-.7-.8l-1.1-1.9c1.3-1.1,2.6-1.9,4.2-2.5,1.5-.5,3.2-.8,4.9-.8s2.4.2,3.4.6,1.9,1,2.6,1.7,1.2,1.6,1.6,2.6.6,2.1.6,3.3v13h-3.1ZM115.9,25.7c.8,0,1.5-.1,2.1-.4s1.2-.7,1.8-1.4v-2.8c-1.2,0-2.3,0-3.1.2s-1.4.4-1.9.6-.8.5-1,.8-.3.6-.3,1c0,.7.2,1.2.6,1.5s1,.4,1.7.4h.1Z"/>
            <path class="cls-1" d="M130.3,29.5V8.7h3.8c.4,0,.7,0,1,.3s.4.4.5.8l.4,1.2c.4-.4.8-.7,1.2-1s.9-.6,1.4-.8,1-.4,1.6-.5,1.2-.2,1.9-.2c1.1,0,2.1.2,3,.6.9.4,1.6.9,2.2,1.6.6.7,1.1,1.5,1.4,2.5.3,1,.5,2,.5,3.1v13.2h-6.2v-13.2c0-1-.2-1.8-.7-2.4s-1.2-.9-2.1-.9-1.3.1-1.9.4c-.6.3-1.2.7-1.7,1.2v14.8h-6.3Z"/>
            <path class="cls-1" d="M161.2,34.8c-.2.4-.4.7-.7.9s-.7.3-1.3.3h-4.6l4-8.4-8.3-18.9h5.5c.5,0,.9.1,1.1.3s.5.5.6.8l3.4,8.9c.3.8.6,1.7.8,2.5.1-.4.3-.8.4-1.3.2-.4.3-.8.5-1.3l3.1-8.9c.1-.3.3-.6.6-.8s.6-.3,1-.3h5l-11.1,26.1h0Z"/>
          </g>
        </g>
      </g>
    </g>
  </g>
</svg>